# xmcd
#
# Track frame offsets:
# 150
# 16886
# 36204
# 53030
# 72812
# 87442
# 106349
# 123941
# 136429
# 155193
# 176088
# 198319
#
# Disc length: 2821 seconds
#
#
# Revision: 0
# Processed by: cddbd v1.5.1PL2 Copyright (c) Steve Scherf et al.
# Submitted via: FreeRIP 2.944 
#
DISCID=a30b030c
DTITLE=COTY HERNANDEZ - ELLA SE MENEA
DYEAR=0005
DGENRE=CUMBIA
TTITLE0=ELLA SE MENEA
TTITLE1=NO ALCANZO A COMPRENDER
TTITLE2=LOCO DE AMOR
TTITLE3=DEJAME AMARTE
TTITLE4=TAN SOLO UN BESO
TTITLE5=LA PENITA
TTITLE6=DESPUES DE TI
TTITLE7=DIME
TTITLE8=TE QUIERO A TI
TTITLE9=HOY ME LA JUEGO
TTITLE10=TE RUEGO QUE ME OLVIDES
TTITLE11=BORRACHO SOY
EXTD=
EXTT0=
EXTT1=
EXTT2=
EXTT3=
EXTT4=
EXTT5=
EXTT6=
EXTT7=
EXTT8=
EXTT9=
EXTT10=
EXTT11=
PLAYORDER=
